<mxfile host="app.diagrams.net" agent="Mozilla/5.0 (Windows NT 10.0; Win64; x64) AppleWebKit/537.36 (KHTML, like Gecko) Chrome/135.0.0.0 Safari/537.36 Edg/135.0.0.0" version="26.2.14">
  <diagram name="Página-1" id="Z7oZE0V2ME1roWpe_FHA">
    <mxGraphModel dx="816" dy="504" grid="1" gridSize="10" guides="1" tooltips="1" connect="1" arrows="1" fold="1" page="1" pageScale="1" pageWidth="827" pageHeight="1169" math="0" shadow="0">
      <root>
        <mxCell id="0" />
        <mxCell id="1" parent="0" />
        <mxCell id="nKiqfJJKZ8NkFi2djemI-7" style="rounded=0;orthogonalLoop=1;jettySize=auto;html=1;endArrow=none;startFill=0;" edge="1" parent="1" source="nKiqfJJKZ8NkFi2djemI-1" target="nKiqfJJKZ8NkFi2djemI-6">
          <mxGeometry relative="1" as="geometry" />
        </mxCell>
        <mxCell id="nKiqfJJKZ8NkFi2djemI-11" style="rounded=0;orthogonalLoop=1;jettySize=auto;html=1;endArrow=none;startFill=0;" edge="1" parent="1" source="nKiqfJJKZ8NkFi2djemI-1" target="nKiqfJJKZ8NkFi2djemI-10">
          <mxGeometry relative="1" as="geometry" />
        </mxCell>
        <mxCell id="nKiqfJJKZ8NkFi2djemI-1" value="Alumno" style="rounded=0;whiteSpace=wrap;html=1;" vertex="1" parent="1">
          <mxGeometry x="374" y="80" width="80" height="40" as="geometry" />
        </mxCell>
        <mxCell id="nKiqfJJKZ8NkFi2djemI-3" value="" style="rounded=0;orthogonalLoop=1;jettySize=auto;html=1;endArrow=none;startFill=0;" edge="1" parent="1" source="nKiqfJJKZ8NkFi2djemI-2" target="nKiqfJJKZ8NkFi2djemI-1">
          <mxGeometry relative="1" as="geometry" />
        </mxCell>
        <mxCell id="nKiqfJJKZ8NkFi2djemI-2" value="matricula" style="ellipse;whiteSpace=wrap;html=1;fontStyle=5" vertex="1" parent="1">
          <mxGeometry x="330" y="10" width="70" height="40" as="geometry" />
        </mxCell>
        <mxCell id="nKiqfJJKZ8NkFi2djemI-5" value="" style="rounded=0;orthogonalLoop=1;jettySize=auto;html=1;endArrow=none;startFill=0;" edge="1" parent="1" source="nKiqfJJKZ8NkFi2djemI-4" target="nKiqfJJKZ8NkFi2djemI-1">
          <mxGeometry relative="1" as="geometry" />
        </mxCell>
        <mxCell id="nKiqfJJKZ8NkFi2djemI-4" value="nombre" style="ellipse;whiteSpace=wrap;html=1;" vertex="1" parent="1">
          <mxGeometry x="420" y="10" width="70" height="40" as="geometry" />
        </mxCell>
        <mxCell id="nKiqfJJKZ8NkFi2djemI-6" value="" style="triangle;whiteSpace=wrap;html=1;rotation=90;" vertex="1" parent="1">
          <mxGeometry x="391" y="153" width="46" height="60" as="geometry" />
        </mxCell>
        <mxCell id="nKiqfJJKZ8NkFi2djemI-14" style="rounded=0;orthogonalLoop=1;jettySize=auto;html=1;endArrow=none;startFill=0;" edge="1" parent="1" source="nKiqfJJKZ8NkFi2djemI-8" target="nKiqfJJKZ8NkFi2djemI-6">
          <mxGeometry relative="1" as="geometry" />
        </mxCell>
        <mxCell id="nKiqfJJKZ8NkFi2djemI-8" value="Trabajador" style="rounded=0;whiteSpace=wrap;html=1;" vertex="1" parent="1">
          <mxGeometry x="300" y="260" width="80" height="40" as="geometry" />
        </mxCell>
        <mxCell id="nKiqfJJKZ8NkFi2djemI-15" style="rounded=0;orthogonalLoop=1;jettySize=auto;html=1;endArrow=none;startFill=0;" edge="1" parent="1" source="nKiqfJJKZ8NkFi2djemI-9" target="nKiqfJJKZ8NkFi2djemI-6">
          <mxGeometry relative="1" as="geometry" />
        </mxCell>
        <mxCell id="nKiqfJJKZ8NkFi2djemI-9" value="Desempleado" style="rounded=0;whiteSpace=wrap;html=1;" vertex="1" parent="1">
          <mxGeometry x="440" y="260" width="80" height="40" as="geometry" />
        </mxCell>
        <mxCell id="nKiqfJJKZ8NkFi2djemI-13" style="rounded=0;orthogonalLoop=1;jettySize=auto;html=1;endArrow=none;startFill=0;" edge="1" parent="1" source="nKiqfJJKZ8NkFi2djemI-10" target="nKiqfJJKZ8NkFi2djemI-12">
          <mxGeometry relative="1" as="geometry" />
        </mxCell>
        <mxCell id="nKiqfJJKZ8NkFi2djemI-10" value="toma" style="rhombus;whiteSpace=wrap;html=1;" vertex="1" parent="1">
          <mxGeometry x="520" y="75" width="50" height="50" as="geometry" />
        </mxCell>
        <mxCell id="nKiqfJJKZ8NkFi2djemI-28" style="rounded=0;orthogonalLoop=1;jettySize=auto;html=1;endArrow=none;startFill=0;" edge="1" parent="1" source="nKiqfJJKZ8NkFi2djemI-12" target="nKiqfJJKZ8NkFi2djemI-26">
          <mxGeometry relative="1" as="geometry" />
        </mxCell>
        <mxCell id="nKiqfJJKZ8NkFi2djemI-29" value="" style="rounded=0;orthogonalLoop=1;jettySize=auto;html=1;endArrow=none;startFill=0;" edge="1" parent="1" source="nKiqfJJKZ8NkFi2djemI-12" target="nKiqfJJKZ8NkFi2djemI-27">
          <mxGeometry relative="1" as="geometry" />
        </mxCell>
        <mxCell id="nKiqfJJKZ8NkFi2djemI-31" style="rounded=0;orthogonalLoop=1;jettySize=auto;html=1;endArrow=none;startFill=0;" edge="1" parent="1" source="nKiqfJJKZ8NkFi2djemI-12" target="nKiqfJJKZ8NkFi2djemI-24">
          <mxGeometry relative="1" as="geometry" />
        </mxCell>
        <mxCell id="nKiqfJJKZ8NkFi2djemI-32" style="rounded=0;orthogonalLoop=1;jettySize=auto;html=1;endArrow=none;startFill=0;" edge="1" parent="1" source="nKiqfJJKZ8NkFi2djemI-12" target="nKiqfJJKZ8NkFi2djemI-25">
          <mxGeometry relative="1" as="geometry" />
        </mxCell>
        <mxCell id="nKiqfJJKZ8NkFi2djemI-12" value="Curso" style="rounded=0;whiteSpace=wrap;html=1;" vertex="1" parent="1">
          <mxGeometry x="630" y="80" width="80" height="40" as="geometry" />
        </mxCell>
        <mxCell id="nKiqfJJKZ8NkFi2djemI-17" value="" style="edgeStyle=orthogonalEdgeStyle;rounded=0;orthogonalLoop=1;jettySize=auto;html=1;endArrow=none;startFill=0;" edge="1" parent="1" source="nKiqfJJKZ8NkFi2djemI-16" target="nKiqfJJKZ8NkFi2djemI-8">
          <mxGeometry relative="1" as="geometry" />
        </mxCell>
        <mxCell id="nKiqfJJKZ8NkFi2djemI-19" style="edgeStyle=orthogonalEdgeStyle;rounded=0;orthogonalLoop=1;jettySize=auto;html=1;endArrow=none;startFill=0;" edge="1" parent="1" source="nKiqfJJKZ8NkFi2djemI-16" target="nKiqfJJKZ8NkFi2djemI-18">
          <mxGeometry relative="1" as="geometry" />
        </mxCell>
        <mxCell id="nKiqfJJKZ8NkFi2djemI-16" value="trabaja" style="rhombus;whiteSpace=wrap;html=1;" vertex="1" parent="1">
          <mxGeometry x="315" y="330" width="50" height="50" as="geometry" />
        </mxCell>
        <mxCell id="nKiqfJJKZ8NkFi2djemI-34" value="" style="edgeStyle=orthogonalEdgeStyle;rounded=0;orthogonalLoop=1;jettySize=auto;html=1;endArrow=none;startFill=0;startArrow=none;" edge="1" parent="1" source="nKiqfJJKZ8NkFi2djemI-18" target="nKiqfJJKZ8NkFi2djemI-23">
          <mxGeometry relative="1" as="geometry" />
        </mxCell>
        <mxCell id="nKiqfJJKZ8NkFi2djemI-35" value="" style="edgeStyle=orthogonalEdgeStyle;rounded=0;orthogonalLoop=1;jettySize=auto;html=1;endArrow=none;startFill=0;startArrow=none;" edge="1" parent="1" source="nKiqfJJKZ8NkFi2djemI-18" target="nKiqfJJKZ8NkFi2djemI-22">
          <mxGeometry relative="1" as="geometry" />
        </mxCell>
        <mxCell id="nKiqfJJKZ8NkFi2djemI-18" value="Empresa" style="rounded=0;whiteSpace=wrap;html=1;" vertex="1" parent="1">
          <mxGeometry x="300" y="410" width="80" height="40" as="geometry" />
        </mxCell>
        <mxCell id="nKiqfJJKZ8NkFi2djemI-22" value="codigo" style="ellipse;whiteSpace=wrap;html=1;fontStyle=5" vertex="1" parent="1">
          <mxGeometry x="210" y="410" width="70" height="40" as="geometry" />
        </mxCell>
        <mxCell id="nKiqfJJKZ8NkFi2djemI-23" value="nombre" style="ellipse;whiteSpace=wrap;html=1;" vertex="1" parent="1">
          <mxGeometry x="400" y="410" width="70" height="40" as="geometry" />
        </mxCell>
        <mxCell id="nKiqfJJKZ8NkFi2djemI-24" value="id" style="ellipse;whiteSpace=wrap;html=1;fontStyle=5" vertex="1" parent="1">
          <mxGeometry x="635" y="20" width="70" height="40" as="geometry" />
        </mxCell>
        <mxCell id="nKiqfJJKZ8NkFi2djemI-25" value="titulo" style="ellipse;whiteSpace=wrap;html=1;" vertex="1" parent="1">
          <mxGeometry x="720" y="40" width="70" height="40" as="geometry" />
        </mxCell>
        <mxCell id="nKiqfJJKZ8NkFi2djemI-26" value="duración" style="ellipse;whiteSpace=wrap;html=1;" vertex="1" parent="1">
          <mxGeometry x="720" y="120" width="70" height="40" as="geometry" />
        </mxCell>
        <mxCell id="nKiqfJJKZ8NkFi2djemI-27" value="calificación" style="ellipse;whiteSpace=wrap;html=1;" vertex="1" parent="1">
          <mxGeometry x="635" y="140" width="70" height="40" as="geometry" />
        </mxCell>
        <mxCell id="nKiqfJJKZ8NkFi2djemI-38" value="n:m" style="text;html=1;align=center;verticalAlign=middle;resizable=0;points=[];autosize=1;strokeColor=none;fillColor=none;" vertex="1" parent="1">
          <mxGeometry x="525" y="50" width="40" height="30" as="geometry" />
        </mxCell>
      </root>
    </mxGraphModel>
  </diagram>
</mxfile>
